<svg width="126" height="17" viewBox="0 0 126 17" fill="none" xmlns="http://www.w3.org/2000/svg">
<path d="M8.50188 13.6079C7.77387 13.6079 7.10324 13.4734 6.4834 13.1987L4.96343 15.8371L3.609 15.0517L5.16753 12.3494C5.07818 12.2666 4.98882 12.1829 4.89947 12.0936C3.89681 11.1031 3.39172 9.90861 3.39172 8.49774C3.39172 7.09252 3.89587 5.8914 4.89947 4.90191C5.89554 3.91148 7.09007 3.41392 8.50188 3.41392C9.59389 3.41392 10.5843 3.72713 11.4722 4.35261C12.3413 4.97904 12.948 5.7964 13.2988 6.80564H16.8185C16.4159 4.84454 15.4452 3.22862 13.8933 1.95696C12.3347 0.654262 10.5335 0.00244141 8.50188 0.00244141C6.15138 0.00244141 4.14513 0.832971 2.47842 2.50626C0.823946 4.15415 0 6.15382 0 8.49774C0 10.8482 0.823946 12.8545 2.47842 14.5212C4.14607 16.1757 6.15138 16.9996 8.50188 16.9996H16.9972V13.6079H8.50188Z" fill="black"/>
<path d="M27.946 0.00146484C25.6021 0.00146484 23.5958 0.831994 21.9225 2.50528C20.2746 4.15317 19.4507 6.15284 19.4507 8.49676V16.9986H22.8358V8.49676C22.8358 7.09154 23.34 5.89042 24.3502 4.90093C25.3406 3.91051 26.5408 3.41294 27.946 3.41294H31.3377V0.00146484H27.946Z" fill="black"/>
<path d="M40.8242 10.1964H51.0191V8.49774C51.0191 6.15382 50.182 4.15415 48.5153 2.50626C46.8674 0.832971 44.8678 0.00244141 42.5239 0.00244141C40.1733 0.00244141 38.1671 0.832971 36.5004 2.50626C34.8459 4.15415 34.022 6.15382 34.022 8.49774C34.022 10.8482 34.8459 12.8545 36.5004 14.5212C38.168 16.1757 40.1733 16.9996 42.5239 16.9996H51.0191V13.607H42.5239C41.4253 13.607 40.4348 13.2872 39.5469 12.6429C38.6778 12.0362 38.0712 11.2245 37.7269 10.2218H40.8252V10.1964H40.8242ZM39.546 4.35167C40.4339 3.72525 41.4243 3.41298 42.5229 3.41298C43.6149 3.41298 44.6054 3.72619 45.4933 4.35167C46.3624 4.9781 46.969 5.79546 47.3199 6.8047H37.726C38.0712 5.79546 38.6778 4.97716 39.546 4.35167Z" fill="black"/>
<path d="M82.0175 13.6074C80.6057 13.6074 79.4046 13.1023 78.4151 12.093C77.4059 11.1026 76.9073 9.90808 76.9073 8.49721V5.95765H83.7105V2.54618H76.9073V0.000976562H73.5156V8.49627C73.5156 10.8468 74.3396 12.853 75.994 14.5197C77.6617 16.1742 79.667 16.9982 82.0175 16.9982H85.4026V13.6074H82.0175Z" fill="black"/>
<path d="M101.903 0.00146484V13.6069H96.8251C95.4133 13.6069 94.2122 13.1018 93.2227 12.0926C92.2201 11.1022 91.715 9.90763 91.715 8.49676V0.00146484H88.3232V8.49676C88.3232 10.8473 89.1472 12.8535 90.8017 14.5202C92.4693 16.1747 94.4746 16.9986 96.8251 16.9986H105.32V0.00146484H101.903Z" fill="black"/>
<path d="M113.165 3.41294H125.053V0.00146484H113.165C111.76 0.00146484 110.552 0.493388 109.543 1.48382C108.552 2.49306 108.06 3.70076 108.06 5.11163C108.06 6.51685 108.552 7.71796 109.543 8.70745C110.552 9.69788 111.76 10.1954 113.165 10.1954H119.948C120.415 10.1954 120.817 10.3553 121.143 10.6874C121.475 11.0194 121.641 11.4154 121.641 11.8885C121.641 12.355 121.475 12.7632 121.143 13.115C120.817 13.4404 120.415 13.6069 119.948 13.6069H108.061V16.9986H119.948C121.353 16.9986 122.561 16.5001 123.57 15.5107C124.561 14.5014 125.053 13.2937 125.053 11.8885C125.053 10.4767 124.561 9.28214 123.57 8.29266C122.561 7.30223 121.353 6.80467 119.948 6.80467H113.165C112.698 6.80467 112.29 6.63818 111.945 6.30616C111.613 5.98072 111.446 5.57815 111.446 5.11163C111.446 4.63851 111.613 4.24253 111.945 3.91051C112.289 3.57848 112.698 3.41294 113.165 3.41294Z" fill="black"/>
<path d="M70.5625 7.30358C70.3217 5.46852 69.5222 3.86577 68.1462 2.50288C66.4954 0.835232 64.4967 0 62.1509 0C59.8042 0 57.797 0.834291 56.1284 2.50288C54.4777 4.15359 53.6519 6.15232 53.6519 8.49906C53.6519 10.8449 54.4767 12.853 56.1284 14.5216C57.5637 15.9418 59.2502 16.747 61.1859 16.9454L62.6588 16.9981H70.6481V8.77653L70.5625 7.30358ZM67.2338 13.6083H62.6588L61.1859 13.5217C60.187 13.3393 59.3085 12.8662 58.5523 12.0968C57.544 11.1063 57.0408 9.9071 57.0408 8.49906C57.0408 7.09101 57.544 5.89178 58.5523 4.90135C59.5427 3.91092 60.7429 3.41524 62.15 3.41524C63.5571 3.41524 64.7573 3.91092 65.7477 4.90135C66.4446 5.59832 66.8905 6.39969 67.0974 7.30358L67.2338 8.77653V13.6083Z" fill="black"/>
</svg>
