<svg width="147" height="147" viewBox="0 0 147 147" fill="none" xmlns="http://www.w3.org/2000/svg">
<g clip-path="url(#clip0_645_1233)">
<path d="M76.0345 147H141.931C143.274 146.996 144.561 146.461 145.511 145.511C146.461 144.561 146.996 143.274 147 141.931V5.06897C146.996 3.72583 146.461 2.43884 145.511 1.4891C144.561 0.53935 143.274 0.00401139 141.931 0L76.0345 0C74.6914 0.00401139 73.4044 0.53935 72.4547 1.4891C71.5049 2.43884 70.9696 3.72583 70.9656 5.06897V141.931C70.9656 143.275 71.4996 144.565 72.4502 145.515C73.4009 146.466 74.6902 147 76.0345 147Z" fill="#285680"/>
<path d="M40.5518 119.121H70.9655V139.397H40.5518V119.121Z" fill="#547580"/>
<path d="M111.517 108.983V111.517C111.517 114.206 110.449 116.785 108.548 118.686C106.647 120.587 104.068 121.655 101.379 121.655H10.1379C7.44918 121.655 4.87056 120.587 2.96933 118.686C1.0681 116.785 0 114.206 0 111.517V108.983H111.517Z" fill="#84B5CB"/>
<path d="M111.517 45.6208V108.983H0V45.6208C0 42.932 1.0681 40.3534 2.96933 38.4522C4.87056 36.5509 7.44918 35.4828 10.1379 35.4828H101.379C104.068 35.4828 106.647 36.5509 108.548 38.4522C110.449 40.3534 111.517 42.932 111.517 45.6208Z" fill="#3B97D3"/>
<path d="M86.1723 141.931C86.1624 143.272 85.6251 144.556 84.6766 145.504C83.7282 146.453 82.4446 146.99 81.1033 147H30.4137C29.0706 146.996 27.7836 146.461 26.8338 145.511C25.8841 144.561 25.3487 143.274 25.3447 141.931C25.3547 140.59 25.8919 139.306 26.8404 138.358C27.7889 137.409 29.0724 136.872 30.4137 136.862H81.1033C82.4465 136.866 83.7335 137.401 84.6832 138.351C85.633 139.301 86.1683 140.588 86.1723 141.931Z" fill="#84B5CB"/>
<path d="M134.328 12.6724H83.638C82.2382 12.6724 81.1035 13.8071 81.1035 15.2068V20.2758C81.1035 21.6756 82.2382 22.8103 83.638 22.8103H134.328C135.727 22.8103 136.862 21.6756 136.862 20.2758V15.2068C136.862 13.8071 135.727 12.6724 134.328 12.6724Z" fill="#2C3E50"/>
<path d="M129.259 45.6208C132.058 45.6208 134.328 43.3513 134.328 40.5518C134.328 37.7523 132.058 35.4828 129.259 35.4828C126.459 35.4828 124.19 37.7523 124.19 40.5518C124.19 43.3513 126.459 45.6208 129.259 45.6208Z" fill="#FB7B76"/>
<path d="M129.259 65.8966C132.058 65.8966 134.328 63.6271 134.328 60.8276C134.328 58.0281 132.058 55.7587 129.259 55.7587C126.459 55.7587 124.19 58.0281 124.19 60.8276C124.19 63.6271 126.459 65.8966 129.259 65.8966Z" fill="#4FBA6F"/>
<path d="M96.3104 139.397C95.6382 139.397 94.9935 139.13 94.5182 138.654C94.0429 138.179 93.7759 137.534 93.7759 136.862V131.793C93.7759 131.121 94.0429 130.476 94.5182 130.001C94.9935 129.526 95.6382 129.259 96.3104 129.259C96.9825 129.259 97.6272 129.526 98.1025 130.001C98.5778 130.476 98.8448 131.121 98.8448 131.793V136.862C98.8448 137.534 98.5778 138.179 98.1025 138.654C97.6272 139.13 96.9825 139.397 96.3104 139.397ZM106.448 139.397C105.776 139.397 105.131 139.13 104.656 138.654C104.181 138.179 103.914 137.534 103.914 136.862V131.793C103.914 131.121 104.181 130.476 104.656 130.001C105.131 129.526 105.776 129.259 106.448 129.259C107.12 129.259 107.765 129.526 108.24 130.001C108.716 130.476 108.983 131.121 108.983 131.793V136.862C108.983 137.534 108.716 138.179 108.24 138.654C107.765 139.13 107.12 139.397 106.448 139.397ZM116.586 139.397C115.914 139.397 115.269 139.13 114.794 138.654C114.319 138.179 114.052 137.534 114.052 136.862V131.793C114.052 131.121 114.319 130.476 114.794 130.001C115.269 129.526 115.914 129.259 116.586 129.259C117.258 129.259 117.903 129.526 118.378 130.001C118.854 130.476 119.121 131.121 119.121 131.793V136.862C119.121 137.534 118.854 138.179 118.378 138.654C117.903 139.13 117.258 139.397 116.586 139.397ZM126.724 139.397C126.052 139.397 125.407 139.13 124.932 138.654C124.457 138.179 124.19 137.534 124.19 136.862V131.793C124.19 131.121 124.457 130.476 124.932 130.001C125.407 129.526 126.052 129.259 126.724 129.259C127.396 129.259 128.041 129.526 128.516 130.001C128.992 130.476 129.259 131.121 129.259 131.793V136.862C129.259 137.534 128.992 138.179 128.516 138.654C128.041 139.13 127.396 139.397 126.724 139.397ZM136.862 139.397C136.19 139.397 135.545 139.13 135.07 138.654C134.595 138.179 134.328 137.534 134.328 136.862V131.793C134.328 131.121 134.595 130.476 135.07 130.001C135.545 129.526 136.19 129.259 136.862 129.259C137.534 129.259 138.179 129.526 138.654 130.001C139.13 130.476 139.397 131.121 139.397 131.793V136.862C139.397 137.534 139.13 138.179 138.654 138.654C138.179 139.13 137.534 139.397 136.862 139.397Z" fill="#2C3E50"/>
<path d="M93.3197 35.4828C92.8888 50.9178 88.3521 96.3104 0 96.3104V45.6208C0 42.932 1.0681 40.3534 2.96933 38.4522C4.87056 36.5509 7.44918 35.4828 10.1379 35.4828H93.3197Z" fill="#3B97D3"/>
<path d="M10.1379 58.2931C9.63675 58.293 9.14684 58.1443 8.73015 57.8658C8.31345 57.5873 7.98869 57.1915 7.7969 56.7284C7.60512 56.2654 7.55493 55.7558 7.65267 55.2643C7.75042 54.7727 7.99172 54.3212 8.34607 53.9667L18.484 43.8288C18.962 43.3671 19.6022 43.1116 20.2668 43.1174C20.9313 43.1232 21.567 43.3897 22.0369 43.8596C22.5068 44.3296 22.7733 44.9652 22.7791 45.6298C22.7849 46.2943 22.5294 46.9345 22.0678 47.4125L11.9298 57.5505C11.4546 58.0258 10.8101 58.2929 10.1379 58.2931ZM10.1379 73.5C9.63675 73.4999 9.14684 73.3512 8.73015 73.0727C8.31345 72.7942 7.98869 72.3984 7.7969 71.9353C7.60512 71.4723 7.55493 70.9627 7.65267 70.4712C7.75042 69.9796 7.99172 69.528 8.34607 69.1736L33.6909 43.8288C34.1689 43.3671 34.8091 43.1116 35.4737 43.1174C36.1382 43.1232 36.7739 43.3897 37.2438 43.8596C37.7137 44.3296 37.9802 44.9652 37.986 45.6298C37.9918 46.2943 37.7363 46.9345 37.2747 47.4125L11.9298 72.7574C11.4546 73.2327 10.8101 73.4998 10.1379 73.5Z" fill="white"/>
<path d="M42.679 63.5409H83.1577V89.3976H42.679V63.5409Z" fill="#F9E075"/>
<path d="M80.5742 63.5409H83.1577V89.3976H80.5742V63.5409Z" fill="#F9CD45"/>
<path d="M65.5315 78.1994L83.1577 89.4587H42.679L60.3053 78.1994C61.0857 77.701 61.9924 77.4361 62.9184 77.4361C63.8444 77.4361 64.7511 77.701 65.5315 78.1994Z" fill="#F9CD45"/>
<path d="M65.5313 78.1994C64.3532 77.4469 62.9317 77.2524 61.6265 77.6127C62.0865 77.7397 62.5325 78.8327 62.9478 79.098L78.3277 89.4587H83.1576L65.5313 78.1994Z" fill="#F8B53C"/>
<path d="M60.3053 78.9626L42.679 63.5409H83.1577L65.5315 78.9626C63.9381 80.3567 61.8987 80.3567 60.3053 78.9626Z" fill="#F9CD45"/>
<path d="M79.6755 63.5409L61.9369 79.2996C61.5216 79.663 62.0867 79.5938 61.6265 79.7678C62.9316 80.2611 64.3532 79.9933 65.5313 78.9626L83.1575 63.5409H79.6755Z" fill="#F8B53C"/>
<path d="M83.1576 75.056C83.381 75.056 83.5953 74.9672 83.7533 74.8092C83.9112 74.6512 84 74.437 84 74.2135V63.5411C84 63.5312 83.9989 63.5215 83.9985 63.5117C83.9956 63.424 83.9789 63.3374 83.9491 63.2549C83.948 63.2515 83.9474 63.2481 83.9462 63.2448C83.9452 63.2422 83.9437 63.2398 83.9427 63.2373C83.9286 63.2006 83.912 63.1649 83.893 63.1305C83.8907 63.1265 83.8881 63.1228 83.8858 63.1188C83.8682 63.0887 83.8489 63.0598 83.8278 63.0321C83.8237 63.0266 83.8196 63.0209 83.8153 63.0154C83.7924 62.9868 83.7676 62.9597 83.7411 62.9343C83.7354 62.9288 83.7294 62.9236 83.7235 62.9183C83.6984 62.8954 83.6721 62.874 83.6445 62.8543C83.641 62.8519 83.6379 62.8492 83.6344 62.8468C83.6033 62.8256 83.5708 62.8065 83.5372 62.7896C83.5308 62.7864 83.5243 62.7834 83.5178 62.7803C83.4407 62.7438 83.3585 62.7192 83.274 62.7075C83.2355 62.7019 83.1966 62.6989 83.1576 62.6985H42.6788C42.6392 62.6985 42.6006 62.7023 42.5624 62.7075C42.5539 62.7087 42.5455 62.71 42.5371 62.7114C42.4614 62.7242 42.3879 62.7474 42.3186 62.7803C42.3121 62.7834 42.3056 62.7864 42.2992 62.7896C42.2655 62.8065 42.2331 62.8256 42.202 62.8468C42.1985 62.8492 42.1953 62.852 42.1919 62.8543C42.1642 62.874 42.138 62.8955 42.113 62.9183C42.1071 62.9236 42.1011 62.9287 42.0953 62.9343C42.0688 62.9597 42.044 62.9868 42.0211 63.0154C42.0167 63.0208 42.0128 63.0265 42.0086 63.0321C41.9876 63.0598 41.9682 63.0886 41.9506 63.1188C41.9483 63.1228 41.9457 63.1265 41.9435 63.1305C41.9244 63.1647 41.9081 63.2003 41.8938 63.2371C41.8928 63.2397 41.8912 63.2421 41.8902 63.2448C41.889 63.2481 41.8885 63.2515 41.8873 63.2549C41.8575 63.3374 41.8408 63.424 41.8379 63.5117C41.8375 63.5215 41.8364 63.5312 41.8364 63.5412V68.486C41.8364 68.9513 42.2135 69.3285 42.6788 69.3285C43.1442 69.3285 43.5213 68.9513 43.5213 68.486V65.3976L58.4012 78.4164L43.5213 87.9212V72.1926C43.5213 71.7274 43.1442 71.3502 42.6788 71.3502C42.2135 71.3502 41.8364 71.7274 41.8364 72.1926V89.3978C41.8364 89.4054 41.8373 89.4125 41.8375 89.42C41.8323 89.5337 41.8502 89.6474 41.8901 89.754C41.93 89.8607 41.9911 89.9581 42.0697 90.0405C42.1484 90.1229 42.2429 90.1885 42.3476 90.2333C42.4523 90.2781 42.565 90.3012 42.6788 90.3013H83.1576C83.2715 90.3012 83.3841 90.2781 83.4888 90.2333C83.5935 90.1885 83.6881 90.1229 83.7667 90.0405C83.8453 89.9581 83.9065 89.8607 83.9464 89.754C83.9863 89.6474 84.0041 89.5337 83.9989 89.42C83.9991 89.4125 84 89.4052 84 89.3978V77.9202C84 77.455 83.6229 77.0778 83.1576 77.0778C82.6922 77.0778 82.3151 77.455 82.3151 77.9202V87.9211L67.4354 78.4163L82.3151 65.3975V74.2135C82.3151 74.6789 82.6922 75.056 83.1576 75.056ZM80.1783 88.5554H45.6581L59.7219 79.5718L59.7504 79.5969C60.7126 80.4389 61.8152 80.8598 62.9182 80.8596C64.0208 80.8595 65.124 80.4385 66.086 79.5969L66.1146 79.572L80.1783 88.5554ZM64.9767 78.3288C63.707 79.4395 62.1295 79.4396 60.8599 78.3288L60.3465 77.8796L60.343 77.8765L44.9211 64.3835H80.9154L64.9767 78.3288ZM39.0116 71.0132H27.8424C27.3771 71.0132 27 71.3904 27 71.8556C27 72.3209 27.3771 72.6981 27.8424 72.6981H39.0116C39.235 72.6981 39.4493 72.6093 39.6073 72.4513C39.7653 72.2933 39.854 72.0791 39.854 71.8556C39.854 71.6322 39.7653 71.4179 39.6073 71.26C39.4493 71.102 39.235 71.0132 39.0116 71.0132ZM39.0116 75.9609H31.4571C30.9918 75.9609 30.6147 76.338 30.6147 76.8033C30.6147 77.2685 30.9918 77.6457 31.4571 77.6457H39.0116C39.235 77.6457 39.4493 77.557 39.6073 77.399C39.7653 77.241 39.854 77.0267 39.854 76.8033C39.854 76.5799 39.7653 76.3656 39.6073 76.2076C39.4493 76.0496 39.235 75.9609 39.0116 75.9609ZM39.0116 80.3018H35.2344C34.769 80.3018 34.3919 80.679 34.3919 81.1443C34.3919 81.6095 34.769 81.9867 35.2344 81.9867H39.0116C39.235 81.9867 39.4493 81.8979 39.6073 81.74C39.7653 81.582 39.854 81.3677 39.854 81.1443C39.854 80.9208 39.7653 80.7066 39.6073 80.5486C39.4493 80.3906 39.235 80.3018 39.0116 80.3018Z" fill="black"/>
</g>
<defs>
<clipPath id="clip0_645_1233">
<rect width="147" height="147" fill="white"/>
</clipPath>
</defs>
</svg>
