<svg width="29" height="28" viewBox="0 0 29 28" fill="none" xmlns="http://www.w3.org/2000/svg">
<path d="M26.5867 11.0689C26.1536 10.8172 25.7645 10.4965 25.4347 10.1196C25.468 9.59479 25.593 9.0799 25.804 8.59824C26.192 7.50357 26.6307 6.26357 25.9267 5.29957C25.2227 4.33557 23.8933 4.36624 22.7267 4.3929C22.2112 4.44595 21.6904 4.41078 21.1867 4.2889C20.9183 3.85225 20.7266 3.37288 20.62 2.87157C20.2893 1.7449 19.912 0.471569 18.7533 0.0902358C17.636 -0.269764 16.6013 0.522236 15.6867 1.21824C15.292 1.57866 14.8347 1.8638 14.3373 2.05957C13.8348 1.8654 13.3724 1.58018 12.9733 1.21824C12.0613 0.526236 11.0307 -0.273764 9.908 0.0915692C8.752 0.467569 8.37467 1.7449 8.04133 2.87157C7.93484 3.37126 7.74508 3.84948 7.48 4.28624C6.97536 4.40778 6.4539 4.44384 5.93733 4.3929C4.76667 4.3609 3.448 4.32624 2.73733 5.29957C2.02667 6.2729 2.47067 7.50357 2.86 8.5969C3.07392 9.07785 3.20078 9.59295 3.23467 10.1182C2.90544 10.4957 2.51677 10.8168 2.084 11.0689C1.108 11.7356 0 12.4942 0 13.7262C0 14.9582 1.108 15.7142 2.084 16.3836C2.51667 16.6353 2.90533 16.9559 3.23467 17.3329C3.20434 17.858 3.0811 18.3735 2.87067 18.8556C2.484 19.9489 2.04667 21.1889 2.74933 22.1529C3.452 23.1169 4.77733 23.0862 5.94933 23.0596C6.46529 23.0065 6.98652 23.0416 7.49067 23.1636C7.75784 23.6007 7.94899 24.0799 8.056 24.5809C8.38667 25.7076 8.764 26.9809 9.92267 27.3622C10.1084 27.4218 10.3023 27.4524 10.4973 27.4529C11.4349 27.3184 12.3064 26.892 12.988 26.2342C13.3827 25.8738 13.84 25.5887 14.3373 25.3929C14.8399 25.5871 15.3023 25.8723 15.7013 26.2342C16.6147 26.9316 17.6493 27.7276 18.768 27.3609C19.924 26.9849 20.3013 25.7076 20.6347 24.5822C20.7415 24.0816 20.9327 23.6028 21.2 23.1662C21.7027 23.0439 22.2225 23.0078 22.7373 23.0596C23.908 23.0876 25.2267 23.1262 25.9373 22.1529C26.648 21.1796 26.204 19.9489 25.8147 18.8542C25.6022 18.3737 25.4754 17.8598 25.44 17.3356C25.7694 16.9578 26.1586 16.6366 26.592 16.3849C27.568 15.7182 28.676 14.9582 28.676 13.7262C28.676 12.4942 27.564 11.7369 26.5867 11.0689Z" fill="#FF8E3D"/>
<path d="M17.846 19.5967H17.6613V18.8058C17.6613 17.1519 16.8488 15.5673 15.4893 14.5701C15.104 14.2886 15.1011 13.7157 15.4908 13.43C16.8488 12.4313 17.6613 10.8481 17.6613 9.19423V8.40334H17.846C18.2285 8.40334 18.5402 8.08875 18.5402 7.70194C18.5402 7.31514 18.2285 7.00055 17.846 7.00055H10.1539C9.77146 7.00055 9.45972 7.31514 9.45972 7.70194C9.45972 8.08875 9.77144 8.40334 10.1539 8.40334H10.3386V9.1942C10.3386 10.8481 11.1497 12.4313 12.5092 13.4299C12.8974 13.7142 12.896 14.2872 12.5106 14.57C11.1511 15.5673 10.3387 17.1519 10.3387 18.8058V19.5966H10.1539C9.77149 19.5966 9.45974 19.9112 9.45974 20.298C9.45974 20.6848 9.77146 20.9994 10.1539 20.9994H17.8461C18.2285 20.9994 18.5402 20.6848 18.5402 20.298C18.5402 19.9112 18.2285 19.5967 17.846 19.5967ZM10.7716 18.8058C10.7716 17.289 11.5177 15.8357 12.7675 14.9193C13.3866 14.4647 13.391 13.5382 12.766 13.0807C11.5177 12.1643 10.7716 10.711 10.7716 9.19423V8.40334H17.2283V9.1942C17.2283 10.711 16.4822 12.1643 15.2339 13.0807C14.6104 13.5382 14.6119 14.4632 15.2324 14.9193C16.4822 15.8357 17.2283 17.289 17.2283 18.8058V19.5966H10.7716V18.8058Z" fill="white"/>
<path d="M15.692 17.0701C15.6027 16.9966 15.5086 16.9292 15.4103 16.8683C14.6808 16.4161 14.2164 15.6392 14.2164 14.781V13.2173C14.2164 12.9566 14.3771 12.7162 14.6249 12.6354C14.9325 12.5353 15.2114 12.3625 15.4381 12.1318C15.5278 12.0405 15.6113 11.9445 15.6917 11.8465H12.3082C12.3886 11.9445 12.472 12.0405 12.5617 12.1317C12.7884 12.3625 13.0673 12.5353 13.3748 12.6354C13.6227 12.7161 13.7834 12.9565 13.7834 13.2172V14.7809C13.7834 15.6392 13.3189 16.4161 12.5895 16.8682C12.4912 16.9291 12.3971 16.9965 12.3078 17.07C11.6945 17.5748 11.3503 18.2045 11.3503 18.8699V19.0037L16.6495 19.0038V18.8699C16.6495 18.2046 16.3053 17.5749 15.692 17.0701Z" fill="white"/>
</svg>
