<svg width="44" height="12" viewBox="0 0 44 12" fill="none" xmlns="http://www.w3.org/2000/svg">
<path d="M1.99731 7.272C1.67731 7.272 1.37331 7.192 1.08531 7.032C0.813313 6.872 0.597313 6.656 0.437313 6.384C0.277313 6.112 0.197313 5.792 0.197313 5.424C0.197313 5.088 0.277313 4.784 0.437313 4.512C0.597313 4.24 0.813313 4.024 1.08531 3.864C1.37331 3.704 1.67731 3.624 1.99731 3.624C2.31731 3.624 2.61331 3.704 2.88531 3.864C3.15731 4.024 3.37331 4.24 3.53331 4.512C3.70931 4.784 3.79731 5.088 3.79731 5.424C3.79731 5.792 3.70931 6.112 3.53331 6.384C3.37331 6.656 3.15731 6.872 2.88531 7.032C2.61331 7.192 2.31731 7.272 1.99731 7.272ZM11.5349 12V0.799999H12.5109L20.2389 10.528H19.7269V0.799999H20.8949V12H19.9189L12.2069 2.272H12.7189V12H11.5349ZM24.5506 12V0.799999H28.7426C29.6919 0.799999 30.5079 0.954666 31.1906 1.264C31.8732 1.56267 32.3959 2 32.7586 2.576C33.1319 3.14133 33.3186 3.82933 33.3186 4.64C33.3186 5.42933 33.1319 6.112 32.7586 6.688C32.3959 7.25333 31.8732 7.69067 31.1906 8C30.5079 8.29867 29.6919 8.448 28.7426 8.448H25.2066L25.7346 7.904V12H24.5506ZM32.1986 12L29.3186 7.936H30.5986L33.4946 12H32.1986ZM25.7346 8L25.2066 7.44H28.7106C29.8306 7.44 30.6786 7.19467 31.2546 6.704C31.8412 6.21333 32.1346 5.52533 32.1346 4.64C32.1346 3.744 31.8412 3.05067 31.2546 2.56C30.6786 2.06933 29.8306 1.824 28.7106 1.824H25.2066L25.7346 1.264V8ZM42.0286 7.272C41.7086 7.272 41.4046 7.192 41.1166 7.032C40.8446 6.872 40.6286 6.656 40.4686 6.384C40.3086 6.112 40.2286 5.792 40.2286 5.424C40.2286 5.088 40.3086 4.784 40.4686 4.512C40.6286 4.24 40.8446 4.024 41.1166 3.864C41.4046 3.704 41.7086 3.624 42.0286 3.624C42.3486 3.624 42.6446 3.704 42.9166 3.864C43.1886 4.024 43.4046 4.24 43.5646 4.512C43.7406 4.784 43.8286 5.088 43.8286 5.424C43.8286 5.792 43.7406 6.112 43.5646 6.384C43.4046 6.656 43.1886 6.872 42.9166 7.032C42.6446 7.192 42.3486 7.272 42.0286 7.272Z" fill="#054945"/>
</svg>
