<svg width="110" height="139" viewBox="0 0 110 139" fill="none" xmlns="http://www.w3.org/2000/svg">
<rect x="26.065" y="21.3946" width="55.9791" height="115.656" rx="27.9895" stroke="white" stroke-width="2.2227"/>
<path d="M53.2684 108.971C53.7024 109.405 54.406 109.405 54.84 108.971L61.9126 101.898C62.3466 101.464 62.3466 100.761 61.9126 100.327C61.4786 99.8927 60.7749 99.8927 60.3409 100.327L54.0542 106.613L47.7675 100.327C47.3335 99.8927 46.6298 99.8927 46.1958 100.327C45.7618 100.761 45.7618 101.464 46.1958 101.898L53.2684 108.971ZM52.9429 1.56641L52.9429 108.185H55.1655L55.1655 1.56641L52.9429 1.56641Z" fill="white"/>
<path d="M22.4453 62.4323C22.5432 63.0772 22.5159 63.6596 22.3635 64.1796C22.2111 64.6996 21.9465 65.1296 21.5697 65.4694C21.1917 65.801 20.7144 66.0147 20.1378 66.1108L19.9243 64.7039C20.392 64.6244 20.765 64.4007 21.0433 64.0329C21.3216 63.6652 21.417 63.1924 21.3293 62.6145C21.2518 62.1037 21.07 61.7244 20.7839 61.4765C20.4882 61.2215 20.1478 61.1232 19.7626 61.1817C19.4527 61.2287 19.2123 61.338 19.0413 61.5096C18.869 61.6728 18.7385 61.8854 18.6497 62.1473C18.5597 62.4008 18.4879 62.6901 18.4345 63.0152C18.381 63.3403 18.3217 63.6834 18.2565 64.0446C18.1333 64.7572 17.9178 65.3125 17.6098 65.7105C17.3005 66.1001 16.8528 66.3394 16.2666 66.4283C15.7737 66.5117 15.3253 66.464 14.9213 66.2855C14.516 66.0985 14.1804 65.8068 13.9146 65.4102C13.6392 65.0065 13.4576 64.5157 13.37 63.9379C13.2836 63.3684 13.3126 62.8543 13.4572 62.3954C13.6005 61.9282 13.8421 61.5446 14.1821 61.2445C14.5137 60.9458 14.9259 60.7547 15.4187 60.6714L15.6322 62.0783C15.4061 62.1126 15.2015 62.2036 15.0183 62.3513C14.8267 62.5003 14.6811 62.6981 14.5814 62.9445C14.4817 63.1909 14.4566 63.4774 14.5062 63.804C14.5614 64.224 14.7188 64.5557 14.9784 64.799C15.2368 65.0339 15.5586 65.1222 15.9438 65.0637C16.2872 65.0116 16.5357 64.8711 16.6895 64.6422C16.8432 64.4132 16.9562 64.1134 17.0284 63.7426C17.0923 63.3731 17.1695 62.9502 17.26 62.4738C17.3363 62.0167 17.4489 61.6013 17.5978 61.2274C17.7466 60.8536 17.9691 60.5414 18.2652 60.2909C18.5601 60.032 18.9587 59.8644 19.4612 59.7882C19.905 59.7208 20.3367 59.771 20.7562 59.9386C21.1674 60.1075 21.5287 60.3997 21.8401 60.815C22.1432 61.2317 22.345 61.7708 22.4453 62.4323Z" fill="#3EC6FF" fill-opacity="0.5"/>
<path d="M22.0071 52.2177C21.9531 53.0969 21.7161 53.8461 21.2961 54.4652C20.8682 55.0754 20.3012 55.5327 19.5951 55.8372C18.8806 56.1412 18.071 56.2654 17.1664 56.2097C16.2534 56.1536 15.4651 55.9312 14.8016 55.5424C14.1297 55.1532 13.6188 54.6296 13.2689 53.9716C12.9195 53.3052 12.7719 52.5323 12.8259 51.6531C12.8899 50.6132 13.1957 49.7792 13.7435 49.151C14.2913 48.5227 15.0272 48.1479 15.9512 48.0265L15.8592 49.5229C15.3362 49.6096 14.9106 49.838 14.5823 50.2081C14.254 50.5783 14.0699 51.0889 14.0299 51.7399C13.9753 52.6276 14.2365 53.348 14.8135 53.9011C15.382 54.4537 16.1947 54.7625 17.2514 54.8275C18.2997 54.892 19.1399 54.6848 19.7718 54.206C20.4038 53.7272 20.7471 53.044 20.8016 52.1563C20.8417 51.5053 20.7299 50.9765 20.4664 50.57C20.2029 50.1634 19.8253 49.8856 19.3338 49.7366L19.4258 48.2402C20.2942 48.4718 20.9574 48.9326 21.4157 49.6227C21.8739 50.3128 22.0711 51.1778 22.0071 52.2177Z" fill="#3EC6FF" fill-opacity="0.5"/>
<path d="M22.7634 44.9972L14.2099 42.5615L15.0484 39.6166C15.241 38.9405 15.5128 38.419 15.8638 38.0522C16.2172 37.6772 16.6195 37.4395 17.0708 37.3391C17.514 37.2363 17.9719 37.2522 18.4443 37.3867C18.9739 37.5375 19.4139 37.8169 19.7645 38.225C20.1173 38.6249 20.3028 39.1489 20.3208 39.7969L24.4684 39.0097L24.0404 40.5127L20.1214 41.1933L19.6864 42.7207L23.1323 43.7019L22.7634 44.9972ZM18.7089 42.4423L19.1577 40.866C19.3247 40.2795 19.304 39.8112 19.0954 39.4612C18.8891 39.103 18.5579 38.859 18.1017 38.7291C17.6455 38.5992 17.2448 38.6304 16.8994 38.8226C16.5459 39.0126 16.2833 39.409 16.1116 40.0118L15.6662 41.5759L18.7089 42.4423Z" fill="#3EC6FF" fill-opacity="0.5"/>
<path d="M27.7616 32.2661C27.3382 33.0385 26.7969 33.6208 26.1376 34.0128C25.4784 34.4049 24.7584 34.5994 23.9777 34.5965C23.1895 34.5894 22.398 34.3681 21.6033 33.9325C20.8085 33.4968 20.1999 32.9507 19.7774 32.2942C19.3475 31.6335 19.1205 30.9199 19.0964 30.1532C19.0723 29.3866 19.2719 28.6171 19.6954 27.8446C20.1188 27.0722 20.6601 26.4899 21.3193 26.0978C21.9786 25.7058 22.7002 25.517 23.4843 25.5314C24.2651 25.5344 25.0529 25.7537 25.8476 26.1893C26.6423 26.625 27.2547 27.1731 27.6846 27.8338C28.1111 28.4829 28.3365 29.1908 28.3606 29.9574C28.3847 30.7241 28.185 31.4936 27.7616 32.2661ZM26.7032 31.6859C26.9963 31.1511 27.1319 30.6218 27.11 30.0978C27.0922 29.5665 26.9215 29.0672 26.598 28.6001C26.2745 28.133 25.8045 27.7305 25.188 27.3926C24.5716 27.0547 23.9794 26.875 23.4116 26.8535C22.8439 26.8321 22.3312 26.9568 21.8737 27.2276C21.4202 27.4909 21.0469 27.89 20.7538 28.4248C20.4606 28.9596 20.323 29.4926 20.3408 30.024C20.3587 30.5554 20.5293 31.0546 20.8528 31.5217C21.1804 31.9814 21.6524 32.3802 22.2689 32.7181C22.8854 33.056 23.4755 33.2394 24.0392 33.2683C24.607 33.2897 25.1197 33.1651 25.5772 32.8943C26.0347 32.6235 26.4101 32.2207 26.7032 31.6859Z" fill="#3EC6FF" fill-opacity="0.5"/>
<path d="M31.907 25.5308L25.2056 19.6838L26.091 18.669L31.9882 23.8144L34.6444 20.77L35.4486 21.4717L31.907 25.5308Z" fill="#3EC6FF" fill-opacity="0.5"/>
<path d="M37.9934 19.0527L32.4749 12.0782L33.531 11.2426L38.3873 17.3801L41.5557 14.8731L42.2179 15.71L37.9934 19.0527Z" fill="#3EC6FF" fill-opacity="0.5"/>
<path d="M64.9578 15.4229L70.3111 8.31969L72.6145 10.0557C73.4466 10.6828 74.0202 11.3431 74.3354 12.0368C74.6574 12.7355 74.7455 13.449 74.5998 14.1772C74.466 14.9037 74.1238 15.6322 73.5732 16.3628C73.0276 17.0867 72.4216 17.6164 71.755 17.952C71.1003 18.2859 70.3927 18.3944 69.6323 18.2774C68.8837 18.1588 68.0934 17.7859 67.2613 17.1588L64.9578 15.4229ZM66.7217 15.3202L67.909 16.215C68.5516 16.6993 69.138 16.9768 69.6682 17.0475C70.205 17.1233 70.7025 17.0262 71.1606 16.7562C71.6254 16.4913 72.0643 16.0849 72.4772 15.5369C72.8902 14.9889 73.1625 14.4517 73.2942 13.9251C73.4326 13.4036 73.3915 12.8952 73.1707 12.4C72.9618 11.9031 72.536 11.4125 71.8933 10.9282L70.7061 10.0334L66.7217 15.3202Z" fill="#3EC6FF" fill-opacity="0.5"/>
<path d="M74.8284 23.7789L81.7725 18.2209L83.686 20.6117C84.1254 21.1606 84.3927 21.6844 84.4881 22.1832C84.5888 22.6885 84.5492 23.1542 84.3694 23.5802C84.1962 24.001 83.9178 24.3648 83.5342 24.6718C83.1043 25.0159 82.6215 25.2125 82.0857 25.2615C81.5552 25.3172 81.0207 25.1646 80.4822 24.8035L78.7189 28.6398L77.7423 27.4196L79.46 23.8314L78.4675 22.5914L75.67 24.8304L74.8284 23.7789ZM79.2611 21.9562L80.2854 23.2359C80.6665 23.712 81.0601 23.9666 81.4663 23.9996C81.8777 24.0392 82.2686 23.9108 82.639 23.6144C83.0093 23.3179 83.2163 22.9733 83.2598 22.5803C83.31 22.1821 83.1393 21.7383 82.7476 21.2489L81.7313 19.9791L79.2611 21.9562Z" fill="#3EC6FF" fill-opacity="0.5"/>
<path d="M83.1031 36.8519C82.7458 36.0467 82.6112 35.263 82.6994 34.501C82.7876 33.739 83.0697 33.0486 83.5457 32.4296C84.0295 31.8072 84.6856 31.3122 85.5141 30.9445C86.3426 30.5769 87.146 30.4243 87.9243 30.4867C88.7104 30.5457 89.4156 30.7981 90.0397 31.244C90.6639 31.6899 91.1546 32.3155 91.5119 33.1208C91.8692 33.926 92.0038 34.7097 91.9156 35.4716C91.8274 36.2336 91.5397 36.922 91.0525 37.5366C90.5765 38.1556 89.9243 38.6489 89.0958 39.0165C88.2673 39.3842 87.46 39.5385 86.6739 39.4795C85.899 39.4249 85.1995 39.1746 84.5753 38.7287C83.9511 38.2828 83.4604 37.6572 83.1031 36.8519ZM84.2065 36.3623C84.4538 36.9198 84.7924 37.3488 85.2223 37.6492C85.6556 37.9574 86.1561 38.1246 86.7237 38.1507C87.2914 38.1769 87.8965 38.0473 88.5392 37.7622C89.1819 37.477 89.6839 37.1152 90.0454 36.6768C90.407 36.2384 90.6188 35.7551 90.6811 35.2271C90.7468 34.7067 90.6559 34.1678 90.4085 33.6104C90.1612 33.0529 89.8208 32.62 89.3875 32.3119C88.9542 32.0037 88.4538 31.8365 87.8861 31.8104C87.3219 31.792 86.7185 31.9253 86.0758 32.2105C85.4331 32.4957 84.9293 32.8536 84.5644 33.2843C84.2029 33.7227 83.991 34.2059 83.9288 34.734C83.8665 35.2621 83.9591 35.8048 84.2065 36.3623Z" fill="#3EC6FF" fill-opacity="0.5"/>
<path d="M86.7534 47.537L95.3222 44.1194L95.4901 45.5582L88.3747 48.1665L95.9304 49.3318L96.1027 50.8084L89.0108 53.6187L96.5356 54.519L96.7035 55.9577L87.5862 54.5653L87.4036 53.0003L94.1071 50.2609L86.9456 49.0752L86.7534 47.537Z" fill="#3EC6FF" fill-opacity="0.5"/>
<path d="M87.4314 61.5298L96.1854 63.1045L95.9469 64.4301L88.5669 67.6341L95.1574 68.8196L94.9189 70.1452L86.1649 68.5706L86.4034 67.245L93.7834 64.0409L87.1929 62.8555L87.4314 61.5298Z" fill="#3EC6FF" fill-opacity="0.5"/>
</svg>
