<svg xmlns="http://www.w3.org/2000/svg" width="29" height="28" viewBox="0 0 29 28" fill="none">
    <path d="M26.5867 11.0689C26.1536 10.8172 25.7645 10.4965 25.4347 10.1196C25.468 9.59479 25.593 9.0799 25.804 8.59824C26.192 7.50357 26.6307 6.26357 25.9267 5.29957C25.2227 4.33557 23.8933 4.36624 22.7267 4.3929C22.2112 4.44595 21.6904 4.41078 21.1867 4.2889C20.9183 3.85225 20.7266 3.37288 20.62 2.87157C20.2893 1.7449 19.912 0.471569 18.7533 0.0902358C17.636 -0.269764 16.6013 0.522236 15.6867 1.21824C15.292 1.57866 14.8347 1.8638 14.3373 2.05957C13.8348 1.8654 13.3724 1.58018 12.9733 1.21824C12.0613 0.526236 11.0307 -0.273764 9.908 0.0915692C8.752 0.467569 8.37467 1.7449 8.04133 2.87157C7.93484 3.37126 7.74508 3.84948 7.48 4.28624C6.97536 4.40778 6.4539 4.44384 5.93733 4.3929C4.76667 4.3609 3.448 4.32624 2.73733 5.29957C2.02667 6.2729 2.47067 7.50357 2.86 8.5969C3.07392 9.07785 3.20078 9.59295 3.23467 10.1182C2.90544 10.4957 2.51677 10.8168 2.084 11.0689C1.108 11.7356 0 12.4942 0 13.7262C0 14.9582 1.108 15.7142 2.084 16.3836C2.51667 16.6353 2.90533 16.9559 3.23467 17.3329C3.20434 17.858 3.0811 18.3735 2.87067 18.8556C2.484 19.9489 2.04667 21.1889 2.74933 22.1529C3.452 23.1169 4.77733 23.0862 5.94933 23.0596C6.46529 23.0065 6.98652 23.0416 7.49067 23.1636C7.75784 23.6007 7.94899 24.0799 8.056 24.5809C8.38667 25.7076 8.764 26.9809 9.92267 27.3622C10.1084 27.4218 10.3023 27.4524 10.4973 27.4529C11.4349 27.3184 12.3064 26.892 12.988 26.2342C13.3827 25.8738 13.84 25.5887 14.3373 25.3929C14.8399 25.5871 15.3023 25.8723 15.7013 26.2342C16.6147 26.9316 17.6493 27.7276 18.768 27.3609C19.924 26.9849 20.3013 25.7076 20.6347 24.5822C20.7415 24.0816 20.9327 23.6028 21.2 23.1662C21.7027 23.0439 22.2225 23.0078 22.7373 23.0596C23.908 23.0876 25.2267 23.1262 25.9373 22.1529C26.648 21.1796 26.204 19.9489 25.8147 18.8542C25.6022 18.3737 25.4754 17.8598 25.44 17.3356C25.7694 16.9578 26.1586 16.6366 26.592 16.3849C27.568 15.7182 28.676 14.9582 28.676 13.7262C28.676 12.4942 27.564 11.7369 26.5867 11.0689Z" fill="#029E12"/>
    <path d="M13.004 17.3931C12.8727 17.3933 12.7426 17.3675 12.6213 17.3172C12.5 17.2668 12.3899 17.1929 12.2974 17.0997L9.63069 14.4331C9.45405 14.2435 9.35789 13.9928 9.36246 13.7337C9.36703 13.4746 9.47198 13.2275 9.6552 13.0442C9.83842 12.861 10.0856 12.7561 10.3447 12.7515C10.6037 12.7469 10.8545 12.8431 11.044 13.0197L13.0974 15.0731L17.7374 11.5931C17.9495 11.4339 18.2162 11.3656 18.4788 11.4031C18.7413 11.4406 18.9782 11.5809 19.1374 11.7931C19.2965 12.0052 19.3648 12.2719 19.3273 12.5345C19.2898 12.797 19.1495 13.0339 18.9374 13.1931L13.604 17.1931C13.4309 17.3228 13.2204 17.393 13.004 17.3931Z" fill="white"/>
</svg>