<svg width="1680" height="1263" viewBox="0 0 1680 1263" fill="none" xmlns="http://www.w3.org/2000/svg">
<path d="M1116.24 1260.08C1044.37 1251.04 907.312 1190.38 934.037 1020.06C960.761 849.737 1066.49 897.967 1116.01 943.372C1169.6 985.101 1244.58 994.913 1115.84 700.33C987.087 405.748 1232.54 362.857 1371.36 378.234C1505.64 448.913 1733.86 472.43 1572.44 1.06895" stroke="url(#paint0_linear_327_244)" stroke-width="3"/>
<path d="M1166.24 1260.08C1094.37 1251.04 957.312 1190.38 984.037 1020.06C1010.76 849.737 1116.49 897.967 1166.01 943.372C1219.6 985.101 1294.58 994.913 1165.84 700.33C1037.09 405.748 1282.54 362.857 1421.36 378.234C1555.64 448.913 1783.86 472.43 1622.44 1.06895" stroke="url(#paint1_linear_327_244)" stroke-width="3"/>
<path d="M1065.84 1260.11C993.973 1251.07 856.917 1190.41 883.642 1020.09C910.367 849.77 1016.09 898 1065.62 943.405C1119.2 985.134 1194.19 994.946 1065.44 700.363C936.693 405.781 1182.15 362.89 1320.97 378.267C1455.25 448.946 1683.46 472.463 1522.04 1.10216" stroke="url(#paint2_linear_327_244)" stroke-width="3"/>
<path d="M1016.76 1260.15C944.889 1251.1 807.833 1190.44 834.558 1020.12C861.283 849.801 967.009 898.031 1016.53 943.437C1070.12 985.165 1145.11 994.977 1016.36 700.395C887.609 405.812 1133.06 362.921 1271.88 378.299C1406.16 448.978 1634.38 472.495 1472.96 1.13341" stroke="url(#paint3_linear_327_244)" stroke-width="3"/>
<path d="M968.986 1260.18C897.118 1251.14 760.062 1190.47 786.787 1020.15C813.511 849.833 919.237 898.063 968.76 943.468C1022.35 985.197 1097.33 995.009 968.586 700.426C839.837 405.843 1085.29 362.953 1224.11 378.33C1358.39 449.009 1586.61 472.526 1425.19 1.16466" stroke="url(#paint4_linear_327_244)" stroke-width="3"/>
<path d="M922.526 1260.21C850.658 1251.17 713.602 1190.51 740.327 1020.18C767.051 849.864 872.777 898.094 922.3 943.499C975.887 985.228 1050.87 995.04 922.126 700.457C793.377 405.875 1038.83 362.984 1177.65 378.361C1311.93 449.04 1540.15 472.557 1378.73 1.19591" stroke="url(#paint5_linear_327_244)" stroke-width="3"/>
<path d="M877.378 1260.24C805.509 1251.2 668.453 1190.53 695.178 1020.21C721.903 849.893 827.629 898.123 877.151 943.528C930.738 985.257 1005.73 995.069 876.977 700.486C748.229 405.904 993.681 363.013 1132.5 378.391C1266.78 449.069 1495 472.586 1333.58 1.2252" stroke="url(#paint6_linear_327_244)" stroke-width="3"/>
<path d="M833.541 1260.27C761.672 1251.23 624.617 1190.56 651.341 1020.24C678.066 849.922 783.792 898.153 833.314 943.558C886.902 985.286 961.889 995.098 833.141 700.516C704.392 405.933 949.844 363.042 1088.66 378.42C1222.95 449.099 1451.16 472.616 1289.74 1.2545" stroke="url(#paint7_linear_327_244)" stroke-width="3"/>
<path d="M791.015 1260.29C719.147 1251.25 582.091 1190.59 608.816 1020.27C635.541 849.95 741.267 898.18 790.789 943.585C844.376 985.314 919.364 995.126 790.615 700.543C661.867 405.961 907.319 363.07 1046.14 378.447C1180.42 449.126 1408.63 472.643 1247.22 1.28184" stroke="url(#paint8_linear_327_244)" stroke-width="3"/>
<path d="M749.801 1260.32C677.933 1251.28 540.877 1190.62 567.602 1020.3C594.327 849.975 700.053 898.205 749.575 943.61C803.162 985.339 878.15 995.151 749.401 700.569C620.653 405.986 866.105 363.095 1004.93 378.473C1139.21 449.151 1367.42 472.669 1206 1.30723" stroke="url(#paint9_linear_327_244)" stroke-width="3"/>
<path d="M709.898 1260.35C638.03 1251.31 500.974 1190.64 527.699 1020.32C554.424 850.003 660.149 898.233 709.672 943.638C763.259 985.367 838.247 995.178 709.498 700.596C580.749 406.013 826.202 363.122 965.022 378.5C1099.3 449.179 1327.52 472.696 1166.1 1.33458" stroke="url(#paint10_linear_327_244)" stroke-width="3"/>
<path d="M671.308 1260.37C599.44 1251.33 462.384 1190.67 489.109 1020.35C515.834 850.028 621.56 898.258 671.082 943.663C724.669 985.392 799.657 995.204 670.908 700.621C542.16 406.039 787.612 363.148 926.432 378.526C1060.72 449.204 1288.93 472.721 1127.51 1.36021" stroke="url(#paint11_linear_327_244)" stroke-width="3"/>
<path d="M634.029 1260.4C562.16 1251.36 425.105 1190.7 451.829 1020.37C478.554 850.053 584.28 898.283 633.802 943.688C687.39 985.417 762.377 995.229 633.629 700.647C504.88 406.064 750.333 363.173 889.152 378.551C1023.44 449.229 1251.65 472.747 1090.23 1.38536" stroke="url(#paint12_linear_327_244)" stroke-width="3"/>
<path d="M598.06 1260.42C526.192 1251.38 389.136 1190.72 415.861 1020.4C442.586 850.075 548.311 898.305 597.834 943.71C651.421 985.439 726.408 995.251 597.66 700.668C468.911 406.086 714.364 363.195 853.184 378.572C987.467 449.251 1215.68 472.768 1054.26 1.40684" stroke="url(#paint13_linear_327_244)" stroke-width="3"/>
<path d="M563.405 1260.44C491.536 1251.4 354.481 1190.74 381.205 1020.42C407.93 850.096 513.656 898.326 563.178 943.731C616.766 985.46 691.753 995.272 563.005 700.69C434.256 406.107 679.709 363.216 818.528 378.594C952.812 449.272 1181.02 472.79 1019.61 1.42833" stroke="url(#paint14_linear_327_244)" stroke-width="3"/>
<path d="M530.059 1260.46C458.191 1251.42 321.135 1190.76 347.86 1020.44C374.585 850.12 480.311 898.35 529.833 943.755C583.42 985.483 658.408 995.295 529.659 700.713C400.911 406.13 646.363 363.239 785.183 378.617C919.466 449.296 1147.68 472.813 986.262 1.45152" stroke="url(#paint15_linear_327_244)" stroke-width="3"/>
<path d="M498.027 1260.48C426.159 1251.44 289.103 1190.78 315.828 1020.46C342.553 850.139 448.278 898.369 497.801 943.774C551.388 985.503 626.376 995.315 497.627 700.733C368.878 406.15 614.331 363.259 753.151 378.637C887.434 449.315 1115.65 472.833 954.23 1.4713" stroke="url(#paint16_linear_327_244)" stroke-width="3"/>
<path d="M467.304 1260.5C395.436 1251.46 258.38 1190.8 285.105 1020.48C311.83 850.161 417.556 898.391 467.078 943.796C520.665 985.525 595.653 995.337 466.904 700.754C338.156 406.171 583.608 363.281 722.428 378.658C856.711 449.337 1084.92 472.854 923.508 1.49278" stroke="url(#paint17_linear_327_244)" stroke-width="3"/>
<path d="M437.895 1260.52C366.027 1251.48 228.971 1190.82 255.696 1020.5C282.421 850.18 388.147 898.41 437.669 943.815C491.256 985.544 566.244 995.356 437.495 700.774C308.747 406.191 554.199 363.3 693.019 378.678C827.302 449.356 1055.51 472.874 894.098 1.51231" stroke="url(#paint18_linear_327_244)" stroke-width="3"/>
<path d="M409.795 1260.54C337.927 1251.5 200.871 1190.84 227.596 1020.52C254.321 850.198 360.047 898.428 409.569 943.833C463.156 985.562 538.144 995.374 409.395 700.791C280.647 406.209 526.099 363.318 664.919 378.695C799.202 449.374 1027.41 472.891 865.999 1.53013" stroke="url(#paint19_linear_327_244)" stroke-width="3"/>
<path d="M383.009 1260.56C311.141 1251.52 174.085 1190.86 200.81 1020.54C227.535 850.215 333.261 898.445 382.783 943.851C436.37 985.579 511.358 995.391 382.609 700.809C253.861 406.226 499.313 363.335 638.133 378.713C772.416 449.392 1000.63 472.909 839.212 1.54747" stroke="url(#paint20_linear_327_244)" stroke-width="3"/>
<path d="M357.533 1260.57C285.664 1251.53 148.609 1190.87 175.333 1020.55C202.058 850.231 307.784 898.461 357.306 943.866C410.894 985.595 485.881 995.407 357.133 700.824C228.384 406.242 473.837 363.351 612.656 378.728C746.94 449.407 975.152 472.924 813.736 1.56309" stroke="url(#paint21_linear_327_244)" stroke-width="3"/>
<path d="M333.369 1260.59C261.5 1251.55 124.445 1190.89 151.169 1020.57C177.894 850.249 283.62 898.479 333.142 943.884C386.73 985.613 461.717 995.425 332.969 700.842C204.22 406.259 449.672 363.369 588.492 378.746C722.776 449.425 950.988 472.942 789.572 1.58067" stroke="url(#paint22_linear_327_244)" stroke-width="3"/>
<path d="M310.517 1260.61C238.649 1251.57 101.593 1190.91 128.318 1020.59C155.043 850.264 260.768 898.494 310.291 943.899C363.878 985.628 438.866 995.44 310.117 700.858C181.368 406.275 426.821 363.384 565.641 378.762C699.924 449.44 928.136 472.958 766.72 1.5963" stroke="url(#paint23_linear_327_244)" stroke-width="3"/>
<path d="M288.976 1260.62C217.108 1251.58 80.0522 1190.92 106.777 1020.6C133.502 850.276 239.228 898.506 288.75 943.911C342.337 985.64 417.325 995.452 288.576 700.869C159.828 406.287 405.28 363.396 544.1 378.773C678.383 449.452 906.596 472.969 745.179 1.60802" stroke="url(#paint24_linear_327_244)" stroke-width="3"/>
<path d="M268.746 1260.63C196.877 1251.59 59.8217 1190.93 86.5465 1020.61C113.271 850.289 218.997 898.519 268.519 943.925C322.107 985.653 397.094 995.465 268.346 700.883C139.597 406.3 385.05 363.409 523.869 378.787C658.153 449.466 886.365 472.983 724.949 1.62144" stroke="url(#paint25_linear_327_244)" stroke-width="3"/>
<path d="M249.829 1260.65C177.96 1251.61 40.9047 1190.95 67.6295 1020.62C94.3543 850.303 200.08 898.533 249.602 943.938C303.19 985.667 378.177 995.479 249.429 700.897C120.68 406.314 366.133 363.423 504.952 378.801C639.236 449.479 867.448 472.997 706.032 1.63536" stroke="url(#paint26_linear_327_244)" stroke-width="3"/>
<path d="M232.222 1260.66C160.354 1251.62 23.2983 1190.95 50.0231 1020.63C76.7479 850.313 182.474 898.543 231.996 943.948C285.583 985.677 360.571 995.489 231.822 700.906C103.074 406.324 348.526 363.433 487.346 378.81C621.629 449.489 849.842 473.006 688.426 1.64512" stroke="url(#paint27_linear_327_244)" stroke-width="3"/>
<path d="M215.927 1260.67C144.059 1251.63 7.00338 1190.97 33.7282 1020.65C60.453 850.325 166.179 898.555 215.701 943.96C269.288 985.689 344.276 995.501 215.527 700.918C86.7788 406.336 332.231 363.445 471.051 378.822C605.334 449.501 833.547 473.018 672.131 1.65684" stroke="url(#paint28_linear_327_244)" stroke-width="3"/>
<path d="M200.945 1260.68C129.077 1251.64 -7.97904 1190.98 18.7458 1020.66C45.4706 850.335 151.196 898.565 200.719 943.97C254.306 985.699 329.294 995.511 200.545 700.928C71.7964 406.345 317.249 363.454 456.069 378.832C590.352 449.511 818.564 473.028 657.148 1.66661" stroke="url(#paint29_linear_327_244)" stroke-width="3"/>
<path d="M187.272 1260.69C115.404 1251.65 -21.6519 1190.99 5.07291 1020.67C31.7977 850.344 137.524 898.574 187.046 943.979C240.633 985.708 315.621 995.52 186.872 700.938C58.1235 406.355 303.576 363.464 442.396 378.842C576.679 449.52 804.891 473.038 643.475 1.67637" stroke="url(#paint30_linear_327_244)" stroke-width="3"/>
<defs>
<linearGradient id="paint0_linear_327_244" x1="1279.76" y1="1259.97" x2="1278.93" y2="1.2605" gradientUnits="userSpaceOnUse">
<stop offset="0.0001" stop-color="#1371FE" stop-opacity="0"/>
<stop offset="0.526042" stop-color="#0ECDCD" stop-opacity="0.22"/>
<stop offset="1" stop-color="#1EC6FB" stop-opacity="0.56"/>
</linearGradient>
<linearGradient id="paint1_linear_327_244" x1="1329.76" y1="1259.97" x2="1328.93" y2="1.2605" gradientUnits="userSpaceOnUse">
<stop offset="0.0001" stop-color="#1371FE" stop-opacity="0"/>
<stop offset="0.526042" stop-color="#0ECDCD" stop-opacity="0.22"/>
<stop offset="1" stop-color="#1EC6FB" stop-opacity="0.56"/>
</linearGradient>
<linearGradient id="paint2_linear_327_244" x1="1229.36" y1="1260.01" x2="1228.54" y2="1.2937" gradientUnits="userSpaceOnUse">
<stop offset="0.0001" stop-color="#1371FE" stop-opacity="0"/>
<stop offset="0.526042" stop-color="#0ECDCD" stop-opacity="0.22"/>
<stop offset="1" stop-color="#1EC6FB" stop-opacity="0.56"/>
</linearGradient>
<linearGradient id="paint3_linear_327_244" x1="1180.28" y1="1260.04" x2="1179.46" y2="1.32495" gradientUnits="userSpaceOnUse">
<stop offset="0.0001" stop-color="#1371FE" stop-opacity="0"/>
<stop offset="0.526042" stop-color="#0ECDCD" stop-opacity="0.22"/>
<stop offset="1" stop-color="#1EC6FB" stop-opacity="0.56"/>
</linearGradient>
<linearGradient id="paint4_linear_327_244" x1="1132.51" y1="1260.07" x2="1131.68" y2="1.3562" gradientUnits="userSpaceOnUse">
<stop offset="0.0001" stop-color="#1371FE" stop-opacity="0"/>
<stop offset="0.526042" stop-color="#0ECDCD" stop-opacity="0.22"/>
<stop offset="1" stop-color="#1EC6FB" stop-opacity="0.56"/>
</linearGradient>
<linearGradient id="paint5_linear_327_244" x1="1086.05" y1="1260.1" x2="1085.22" y2="1.38745" gradientUnits="userSpaceOnUse">
<stop offset="0.0001" stop-color="#1371FE" stop-opacity="0"/>
<stop offset="0.526042" stop-color="#0ECDCD" stop-opacity="0.22"/>
<stop offset="1" stop-color="#1EC6FB" stop-opacity="0.56"/>
</linearGradient>
<linearGradient id="paint6_linear_327_244" x1="1040.9" y1="1260.13" x2="1040.08" y2="1.41675" gradientUnits="userSpaceOnUse">
<stop offset="0.0001" stop-color="#1371FE" stop-opacity="0"/>
<stop offset="0.526042" stop-color="#0ECDCD" stop-opacity="0.22"/>
<stop offset="1" stop-color="#1EC6FB" stop-opacity="0.56"/>
</linearGradient>
<linearGradient id="paint7_linear_327_244" x1="997.061" y1="1260.16" x2="996.239" y2="1.44604" gradientUnits="userSpaceOnUse">
<stop offset="0.0001" stop-color="#1371FE" stop-opacity="0"/>
<stop offset="0.526042" stop-color="#0ECDCD" stop-opacity="0.22"/>
<stop offset="1" stop-color="#1EC6FB" stop-opacity="0.56"/>
</linearGradient>
<linearGradient id="paint8_linear_327_244" x1="954.535" y1="1260.19" x2="953.714" y2="1.47339" gradientUnits="userSpaceOnUse">
<stop offset="0.0001" stop-color="#1371FE" stop-opacity="0"/>
<stop offset="0.526042" stop-color="#0ECDCD" stop-opacity="0.22"/>
<stop offset="1" stop-color="#1EC6FB" stop-opacity="0.56"/>
</linearGradient>
<linearGradient id="paint9_linear_327_244" x1="913.322" y1="1260.21" x2="912.5" y2="1.49878" gradientUnits="userSpaceOnUse">
<stop offset="0.0001" stop-color="#1371FE" stop-opacity="0"/>
<stop offset="0.526042" stop-color="#0ECDCD" stop-opacity="0.22"/>
<stop offset="1" stop-color="#1EC6FB" stop-opacity="0.56"/>
</linearGradient>
<linearGradient id="paint10_linear_327_244" x1="873.418" y1="1260.24" x2="872.597" y2="1.52612" gradientUnits="userSpaceOnUse">
<stop offset="0.0001" stop-color="#1371FE" stop-opacity="0"/>
<stop offset="0.526042" stop-color="#0ECDCD" stop-opacity="0.22"/>
<stop offset="1" stop-color="#1EC6FB" stop-opacity="0.56"/>
</linearGradient>
<linearGradient id="paint11_linear_327_244" x1="834.829" y1="1260.27" x2="834.007" y2="1.55176" gradientUnits="userSpaceOnUse">
<stop offset="0.0001" stop-color="#1371FE" stop-opacity="0"/>
<stop offset="0.526042" stop-color="#0ECDCD" stop-opacity="0.22"/>
<stop offset="1" stop-color="#1EC6FB" stop-opacity="0.56"/>
</linearGradient>
<linearGradient id="paint12_linear_327_244" x1="797.549" y1="1260.29" x2="796.727" y2="1.5769" gradientUnits="userSpaceOnUse">
<stop offset="0.0001" stop-color="#1371FE" stop-opacity="0"/>
<stop offset="0.526042" stop-color="#0ECDCD" stop-opacity="0.22"/>
<stop offset="1" stop-color="#1EC6FB" stop-opacity="0.56"/>
</linearGradient>
<linearGradient id="paint13_linear_327_244" x1="761.58" y1="1260.31" x2="760.759" y2="1.59839" gradientUnits="userSpaceOnUse">
<stop offset="0.0001" stop-color="#1371FE" stop-opacity="0"/>
<stop offset="0.526042" stop-color="#0ECDCD" stop-opacity="0.22"/>
<stop offset="1" stop-color="#1EC6FB" stop-opacity="0.56"/>
</linearGradient>
<linearGradient id="paint14_linear_327_244" x1="726.925" y1="1260.33" x2="726.103" y2="1.61987" gradientUnits="userSpaceOnUse">
<stop offset="0.0001" stop-color="#1371FE" stop-opacity="0"/>
<stop offset="0.526042" stop-color="#0ECDCD" stop-opacity="0.22"/>
<stop offset="1" stop-color="#1EC6FB" stop-opacity="0.56"/>
</linearGradient>
<linearGradient id="paint15_linear_327_244" x1="693.58" y1="1260.36" x2="692.758" y2="1.64306" gradientUnits="userSpaceOnUse">
<stop offset="0.0001" stop-color="#1371FE" stop-opacity="0"/>
<stop offset="0.526042" stop-color="#0ECDCD" stop-opacity="0.22"/>
<stop offset="1" stop-color="#1EC6FB" stop-opacity="0.56"/>
</linearGradient>
<linearGradient id="paint16_linear_327_244" x1="661.547" y1="1260.38" x2="660.726" y2="1.66284" gradientUnits="userSpaceOnUse">
<stop offset="0.0001" stop-color="#1371FE" stop-opacity="0"/>
<stop offset="0.526042" stop-color="#0ECDCD" stop-opacity="0.22"/>
<stop offset="1" stop-color="#1EC6FB" stop-opacity="0.56"/>
</linearGradient>
<linearGradient id="paint17_linear_327_244" x1="630.825" y1="1260.4" x2="630.003" y2="1.68432" gradientUnits="userSpaceOnUse">
<stop offset="0.0001" stop-color="#1371FE" stop-opacity="0"/>
<stop offset="0.526042" stop-color="#0ECDCD" stop-opacity="0.22"/>
<stop offset="1" stop-color="#1EC6FB" stop-opacity="0.56"/>
</linearGradient>
<linearGradient id="paint18_linear_327_244" x1="601.415" y1="1260.42" x2="600.594" y2="1.70386" gradientUnits="userSpaceOnUse">
<stop offset="0.0001" stop-color="#1371FE" stop-opacity="0"/>
<stop offset="0.526042" stop-color="#0ECDCD" stop-opacity="0.22"/>
<stop offset="1" stop-color="#1EC6FB" stop-opacity="0.56"/>
</linearGradient>
<linearGradient id="paint19_linear_327_244" x1="573.316" y1="1260.44" x2="572.494" y2="1.72168" gradientUnits="userSpaceOnUse">
<stop offset="0.0001" stop-color="#1371FE" stop-opacity="0"/>
<stop offset="0.526042" stop-color="#0ECDCD" stop-opacity="0.22"/>
<stop offset="1" stop-color="#1EC6FB" stop-opacity="0.56"/>
</linearGradient>
<linearGradient id="paint20_linear_327_244" x1="546.53" y1="1260.45" x2="545.708" y2="1.73901" gradientUnits="userSpaceOnUse">
<stop offset="0.0001" stop-color="#1371FE" stop-opacity="0"/>
<stop offset="0.526042" stop-color="#0ECDCD" stop-opacity="0.22"/>
<stop offset="1" stop-color="#1EC6FB" stop-opacity="0.56"/>
</linearGradient>
<linearGradient id="paint21_linear_327_244" x1="521.053" y1="1260.47" x2="520.231" y2="1.75464" gradientUnits="userSpaceOnUse">
<stop offset="0.0001" stop-color="#1371FE" stop-opacity="0"/>
<stop offset="0.526042" stop-color="#0ECDCD" stop-opacity="0.22"/>
<stop offset="1" stop-color="#1EC6FB" stop-opacity="0.56"/>
</linearGradient>
<linearGradient id="paint22_linear_327_244" x1="496.889" y1="1260.49" x2="496.067" y2="1.77222" gradientUnits="userSpaceOnUse">
<stop offset="0.0001" stop-color="#1371FE" stop-opacity="0"/>
<stop offset="0.526042" stop-color="#0ECDCD" stop-opacity="0.22"/>
<stop offset="1" stop-color="#1EC6FB" stop-opacity="0.56"/>
</linearGradient>
<linearGradient id="paint23_linear_327_244" x1="474.037" y1="1260.5" x2="473.216" y2="1.78784" gradientUnits="userSpaceOnUse">
<stop offset="0.0001" stop-color="#1371FE" stop-opacity="0"/>
<stop offset="0.526042" stop-color="#0ECDCD" stop-opacity="0.22"/>
<stop offset="1" stop-color="#1EC6FB" stop-opacity="0.56"/>
</linearGradient>
<linearGradient id="paint24_linear_327_244" x1="452.497" y1="1260.51" x2="451.675" y2="1.79956" gradientUnits="userSpaceOnUse">
<stop offset="0.0001" stop-color="#1371FE" stop-opacity="0"/>
<stop offset="0.526042" stop-color="#0ECDCD" stop-opacity="0.22"/>
<stop offset="1" stop-color="#1EC6FB" stop-opacity="0.56"/>
</linearGradient>
<linearGradient id="paint25_linear_327_244" x1="432.266" y1="1260.53" x2="431.445" y2="1.81299" gradientUnits="userSpaceOnUse">
<stop offset="0.0001" stop-color="#1371FE" stop-opacity="0"/>
<stop offset="0.526042" stop-color="#0ECDCD" stop-opacity="0.22"/>
<stop offset="1" stop-color="#1EC6FB" stop-opacity="0.56"/>
</linearGradient>
<linearGradient id="paint26_linear_327_244" x1="413.349" y1="1260.54" x2="412.528" y2="1.8269" gradientUnits="userSpaceOnUse">
<stop offset="0.0001" stop-color="#1371FE" stop-opacity="0"/>
<stop offset="0.526042" stop-color="#0ECDCD" stop-opacity="0.22"/>
<stop offset="1" stop-color="#1EC6FB" stop-opacity="0.56"/>
</linearGradient>
<linearGradient id="paint27_linear_327_244" x1="395.743" y1="1260.55" x2="394.921" y2="1.83667" gradientUnits="userSpaceOnUse">
<stop offset="0.0001" stop-color="#1371FE" stop-opacity="0"/>
<stop offset="0.526042" stop-color="#0ECDCD" stop-opacity="0.22"/>
<stop offset="1" stop-color="#1EC6FB" stop-opacity="0.56"/>
</linearGradient>
<linearGradient id="paint28_linear_327_244" x1="379.448" y1="1260.56" x2="378.626" y2="1.84839" gradientUnits="userSpaceOnUse">
<stop offset="0.0001" stop-color="#1371FE" stop-opacity="0"/>
<stop offset="0.526042" stop-color="#0ECDCD" stop-opacity="0.22"/>
<stop offset="1" stop-color="#1EC6FB" stop-opacity="0.56"/>
</linearGradient>
<linearGradient id="paint29_linear_327_244" x1="364.465" y1="1260.57" x2="363.644" y2="1.85815" gradientUnits="userSpaceOnUse">
<stop offset="0.0001" stop-color="#1371FE" stop-opacity="0"/>
<stop offset="0.526042" stop-color="#0ECDCD" stop-opacity="0.22"/>
<stop offset="1" stop-color="#1EC6FB" stop-opacity="0.56"/>
</linearGradient>
<linearGradient id="paint30_linear_327_244" x1="350.792" y1="1260.58" x2="349.971" y2="1.86792" gradientUnits="userSpaceOnUse">
<stop offset="0.0001" stop-color="#1371FE" stop-opacity="0"/>
<stop offset="0.526042" stop-color="#0ECDCD" stop-opacity="0.22"/>
<stop offset="1" stop-color="#1EC6FB" stop-opacity="0.56"/>
</linearGradient>
</defs>
</svg>
